0
SECTION
2
ENTITIES
0
LINE
8
OUTLINE
10
0.000
20
0.000
30
0.0
11
140.000
21
0.000
31
0.0
0
LINE
8
OUTLINE
10
140.000
20
0.000
30
0.0
11
140.000
21
90.000
31
0.0
0
LINE
8
OUTLINE
10
140.000
20
90.000
30
0.0
11
0.000
21
90.000
31
0.0
0
LINE
8
OUTLINE
10
0.000
20
90.000
30
0.0
11
0.000
21
0.000
31
0.0
0
CIRCLE
8
HOLES
10
8.000
20
8.000
30
0.0
40
1.600
0
CIRCLE
8
HOLES
10
132.000
20
8.000
30
0.0
40
1.600
0
CIRCLE
8
HOLES
10
8.000
20
82.000
30
0.0
40
1.600
0
CIRCLE
8
HOLES
10
132.000
20
82.000
30
0.0
40
1.600
0
LINE
8
PLACEMENT
10
6.000
20
4.000
30
0.0
11
60.000
21
4.000
31
0.0
0
LINE
8
PLACEMENT
10
60.000
20
4.000
30
0.0
11
60.000
21
22.000
31
0.0
0
LINE
8
PLACEMENT
10
60.000
20
22.000
30
0.0
11
6.000
21
22.000
31
0.0
0
LINE
8
PLACEMENT
10
6.000
20
22.000
30
0.0
11
6.000
21
4.000
31
0.0
0
LINE
8
PLACEMENT
10
78.000
20
4.000
30
0.0
11
134.000
21
4.000
31
0.0
0
LINE
8
PLACEMENT
10
134.000
20
4.000
30
0.0
11
134.000
21
22.000
31
0.0
0
LINE
8
PLACEMENT
10
134.000
20
22.000
30
0.0
11
78.000
21
22.000
31
0.0
0
LINE
8
PLACEMENT
10
78.000
20
22.000
30
0.0
11
78.000
21
4.000
31
0.0
0
LINE
8
PLACEMENT
10
40.000
20
28.000
30
0.0
11
100.000
21
28.000
31
0.0
0
LINE
8
PLACEMENT
10
100.000
20
28.000
30
0.0
11
100.000
21
50.000
31
0.0
0
LINE
8
PLACEMENT
10
100.000
20
50.000
30
0.0
11
40.000
21
50.000
31
0.0
0
LINE
8
PLACEMENT
10
40.000
20
50.000
30
0.0
11
40.000
21
28.000
31
0.0
0
LINE
8
PLACEMENT
10
6.000
20
54.000
30
0.0
11
46.000
21
54.000
31
0.0
0
LINE
8
PLACEMENT
10
46.000
20
54.000
30
0.0
11
46.000
21
78.000
31
0.0
0
LINE
8
PLACEMENT
10
46.000
20
78.000
30
0.0
11
6.000
21
78.000
31
0.0
0
LINE
8
PLACEMENT
10
6.000
20
78.000
30
0.0
11
6.000
21
54.000
31
0.0
0
LINE
8
PLACEMENT
10
52.000
20
54.000
30
0.0
11
96.000
21
54.000
31
0.0
0
LINE
8
PLACEMENT
10
96.000
20
54.000
30
0.0
11
96.000
21
78.000
31
0.0
0
LINE
8
PLACEMENT
10
96.000
20
78.000
30
0.0
11
52.000
21
78.000
31
0.0
0
LINE
8
PLACEMENT
10
52.000
20
78.000
30
0.0
11
52.000
21
54.000
31
0.0
0
LINE
8
PLACEMENT
10
102.000
20
40.000
30
0.0
11
134.000
21
40.000
31
0.0
0
LINE
8
PLACEMENT
10
134.000
20
40.000
30
0.0
11
134.000
21
66.000
31
0.0
0
LINE
8
PLACEMENT
10
134.000
20
66.000
30
0.0
11
102.000
21
66.000
31
0.0
0
LINE
8
PLACEMENT
10
102.000
20
66.000
30
0.0
11
102.000
21
40.000
31
0.0
0
LINE
8
PLACEMENT
10
6.000
20
80.000
30
0.0
11
40.000
21
80.000
31
0.0
0
LINE
8
PLACEMENT
10
40.000
20
80.000
30
0.0
11
40.000
21
87.000
31
0.0
0
LINE
8
PLACEMENT
10
40.000
20
87.000
30
0.0
11
6.000
21
87.000
31
0.0
0
LINE
8
PLACEMENT
10
6.000
20
87.000
30
0.0
11
6.000
21
80.000
31
0.0
0
LINE
8
PLACEMENT
10
60.000
20
80.000
30
0.0
11
110.000
21
80.000
31
0.0
0
LINE
8
PLACEMENT
10
110.000
20
80.000
30
0.0
11
110.000
21
87.000
31
0.0
0
LINE
8
PLACEMENT
10
110.000
20
87.000
30
0.0
11
60.000
21
87.000
31
0.0
0
LINE
8
PLACEMENT
10
60.000
20
87.000
30
0.0
11
60.000
21
80.000
31
0.0
0
ENDSEC
0
EOF
